<svg width="22" height="18" viewBox="0 0 22 18" fill="none" xmlns="http://www.w3.org/2000/svg">
<path fill-rule="evenodd" clip-rule="evenodd" d="M0.5 6.25C0.5 3.07436 3.07436 0.5 6.25 0.5H16.25C19.4256 0.5 22 3.07436 22 6.25V12.25C22 15.4256 19.4256 18 16.25 18H6.25C3.07436 18 0.5 15.4256 0.5 12.25V6.25ZM5.7 5.65C5.36863 5.40147 4.89853 5.46863 4.65 5.8C4.40147 6.13137 4.46863 6.60147 4.8 6.85L9.6 10.45C10.5778 11.1833 11.9222 11.1833 12.9 10.45L17.7 6.85C18.0314 6.60147 18.0985 6.13137 17.85 5.8C17.6015 5.46863 17.1314 5.40147 16.8 5.65L12 9.25C11.5556 9.58333 10.9444 9.58333 10.5 9.25L5.7 5.65Z" fill="white"/>
</svg>
