<svg width="36" height="33" viewBox="0 0 36 33" fill="none" xmlns="http://www.w3.org/2000/svg">
<path d="M0.00375262 17.6129C0.815392 16.029 1.73494 14.5061 2.60288 12.9542C3.57309 11.2173 4.55644 9.48803 5.54167 7.75966C6.14313 6.70406 7.09739 6.42913 8.16143 6.99681C8.71879 7.29426 9.27239 7.59921 9.82224 7.90979C10.663 8.38457 10.9801 9.08831 10.7662 10.0322C10.7221 10.2284 10.7699 10.309 10.9548 10.3588C11.3723 10.4714 11.788 10.5943 12.2018 10.72C12.3247 10.7576 12.4204 10.7491 12.5236 10.6619C13.2274 10.0623 14.0944 9.90182 14.9698 9.80705C16.2009 9.67287 17.4366 9.57529 18.6705 9.46457C19.2279 9.41484 19.7683 9.51711 20.2919 9.69539C21.189 10.0013 22.085 10.3109 22.9727 10.6403C23.2964 10.7604 23.5995 10.7848 23.9269 10.6787C24.2826 10.5633 24.6448 10.4676 25.0069 10.3738C25.1862 10.3278 25.2509 10.2574 25.2059 10.0529C24.9882 9.05547 25.3034 8.37613 26.1873 7.88727C26.7503 7.57575 27.3105 7.25766 27.8801 6.95834C28.8531 6.4479 29.8261 6.72939 30.3797 7.67896C30.7213 8.26541 31.0534 8.85748 31.3828 9.45049C31.6342 9.90276 31.5488 10.3306 31.1735 10.5521C30.7785 10.7848 30.3628 10.6412 30.0926 10.1721C29.7783 9.62408 29.4724 9.07142 29.1562 8.52344C28.9563 8.17627 28.809 8.13498 28.4721 8.31889C27.9589 8.59945 27.4466 8.88282 26.938 9.17088C26.5777 9.37543 26.543 9.50867 26.7522 9.87837C27.5057 11.2136 28.2619 12.5469 29.0163 13.8812C29.9903 15.6021 30.9624 17.3248 31.9382 19.0447C32.1878 19.4848 32.262 19.5045 32.7124 19.2605C33.2162 18.9875 33.7145 18.7022 34.2193 18.4311C34.5017 18.2791 34.5711 18.0914 34.4051 17.8024C34.0204 17.1325 33.645 16.4578 33.2744 15.7803C33.1055 15.4707 33.1308 15.1611 33.3795 14.9058C33.6122 14.6666 33.9031 14.6075 34.2174 14.7463C34.3722 14.8148 34.4839 14.9359 34.5665 15.0813C34.9709 15.7935 35.3903 16.4982 35.7741 17.2216C36.2517 18.1233 35.9514 19.1348 35.0685 19.6471C34.4614 19.9999 33.8477 20.3415 33.2275 20.6699C32.3136 21.1541 31.3283 20.8951 30.7907 20.0074C30.6171 19.7213 30.4726 19.679 30.2258 19.877C30.1526 19.9352 30.0682 19.9783 29.9913 20.0318C29.3823 20.456 29.3682 20.5047 29.6732 21.1522C30.2803 22.4414 29.6216 23.9934 28.2582 24.4297C27.9645 24.5235 27.8322 24.6192 27.8116 24.9617C27.7534 25.9526 27.0515 26.767 26.0944 27.0485C25.9209 27.0992 25.7473 27.1067 25.7285 27.3798C25.6225 28.9589 24.4937 29.9001 22.938 29.6936C22.6555 29.6561 22.5795 29.7499 22.4932 29.977C21.933 31.4398 20.1821 31.9718 18.8873 31.0776C18.6283 30.8984 18.3862 30.6929 18.1423 30.4921C18.0109 30.3842 17.918 30.3908 17.781 30.5053C17.2715 30.936 16.7526 31.3554 16.229 31.7682C15.4521 32.38 14.5889 32.5057 13.69 32.106C12.8108 31.7147 12.3604 30.9876 12.2863 30.0389C12.2684 29.8137 12.1924 29.7152 11.9804 29.6486C10.875 29.2986 10.297 28.5508 10.2313 27.3788C10.2201 27.1836 10.1413 27.1292 9.97425 27.0795C8.83233 26.7398 8.23181 25.9939 8.13704 24.7919C8.12202 24.6033 8.04602 24.5385 7.87712 24.4851C6.21913 23.9577 5.59046 22.3504 6.45934 20.8519C6.57006 20.6614 6.55598 20.5442 6.40585 20.3978C6.16095 20.1585 5.88603 19.9643 5.5914 19.7916C5.4347 19.6997 5.354 19.7372 5.25361 19.8855C4.49826 21.0058 3.66598 21.1972 2.49403 20.5366C2.04552 20.2833 1.60264 20.0196 1.14099 19.7916C0.586444 19.5176 0.19423 19.1151 0 18.5258V17.6129H0.00375262ZM14.3074 19.3534C14.3074 19.345 14.3083 19.3375 14.3092 19.329C14.4941 19.3497 14.6846 19.3516 14.8647 19.3947C16.3848 19.756 17.1467 21.3567 16.4683 22.7764C16.367 22.9885 16.3501 23.102 16.5753 23.2559C17.6046 23.9596 17.918 25.1841 17.3691 26.3204C17.2677 26.5296 17.2753 26.6394 17.4826 26.7698C18.025 27.1086 18.4284 27.6087 18.4716 28.2327C18.5157 28.8707 18.8516 29.2188 19.3142 29.5369C19.439 29.6233 19.5516 29.7274 19.6736 29.8184C19.8162 29.9245 19.972 30.0014 20.1521 30.0211C20.5565 30.0643 20.9262 29.856 21.0942 29.4891C21.265 29.1166 21.1805 28.7046 20.8418 28.41C20.5068 28.1182 20.1418 27.8602 19.8106 27.5646C19.4981 27.2859 19.4681 26.8581 19.7064 26.5512C19.941 26.2491 20.3604 26.1909 20.7151 26.418C20.8333 26.493 20.9412 26.5841 21.051 26.6713C21.6281 27.1302 22.1939 27.6031 22.7831 28.046C23.3602 28.4785 24.1137 28.1933 24.2554 27.5017C24.3407 27.0832 24.1306 26.783 23.819 26.5353C23.1876 26.0314 22.5533 25.5332 21.9283 25.0218C21.6131 24.7637 21.5371 24.395 21.7041 24.0797C21.8617 23.7823 22.1967 23.6349 22.542 23.7147C22.7315 23.7579 22.8732 23.8845 23.0196 24.0009C23.6333 24.4888 24.2422 24.9824 24.8624 25.4628C25.1899 25.7171 25.5493 25.7443 25.9105 25.5238C26.2633 25.3089 26.3684 24.9805 26.3215 24.5883C26.2868 24.2955 26.0879 24.1116 25.8768 23.9408C25.3034 23.4773 24.7208 23.026 24.154 22.554C23.804 22.2631 23.7627 21.8156 24.0264 21.4928C24.2807 21.1803 24.6982 21.139 25.0651 21.3924C25.1421 21.4449 25.2134 21.5069 25.2866 21.565C25.8364 22.0023 26.375 22.4527 26.938 22.8721C27.516 23.3028 28.2713 23.0082 28.4046 22.3101C28.4815 21.9094 28.2892 21.612 27.9851 21.3708C26.7381 20.3828 25.5005 19.3816 24.2422 18.4076C22.9192 17.3839 21.5971 16.3555 20.169 15.4791C19.3996 15.0072 18.5579 14.8242 17.6468 14.9452C16.9187 15.0419 16.199 15.2023 15.454 15.1798C13.6768 15.1254 12.4448 14.1711 11.9973 12.4522C11.9456 12.2532 11.8443 12.1566 11.6566 12.1059C11.1828 11.9764 10.7071 11.8516 10.2417 11.6959C9.99771 11.6142 9.88699 11.6912 9.77251 11.9004C9.35778 12.6605 8.92616 13.4111 8.49923 14.1646C7.76734 15.4576 7.04015 16.7534 6.29888 18.0417C6.15626 18.2894 6.12811 18.4386 6.43494 18.5784C6.84217 18.7642 7.2006 19.0447 7.48585 19.3863C7.70541 19.649 7.85273 19.603 8.08074 19.4097C8.5893 18.979 9.10819 18.5577 9.6449 18.1627C10.8525 17.2732 12.5349 17.6288 13.1955 18.934C13.385 19.3093 13.5276 19.5758 13.9959 19.3638C14.0831 19.3243 14.2042 19.3581 14.3092 19.3581L14.3074 19.3534ZM18.8629 10.9433C17.6412 11.0541 16.4186 11.162 15.1969 11.2793C14.7193 11.3252 14.2436 11.3947 13.7988 11.5908C13.4366 11.7512 13.3634 11.9051 13.4751 12.2861C13.6768 12.9748 14.1394 13.4045 14.8272 13.5809C15.499 13.7527 16.1737 13.6813 16.8455 13.5556C18.3806 13.2675 19.8218 13.4749 21.1533 14.3335C22.0597 14.9171 22.9201 15.5636 23.789 16.1998C25.2059 17.2375 26.5711 18.341 27.9373 19.4426C28.1428 19.6087 28.2657 19.6255 28.4515 19.4107C28.7668 19.0457 29.1524 18.7529 29.5878 18.5409C29.8186 18.4283 29.8224 18.311 29.706 18.1064C28.5322 16.0412 27.363 13.9732 26.1986 11.9032C26.0813 11.6949 25.949 11.6339 25.7135 11.709C25.2124 11.8685 24.7029 12.0036 24.1953 12.1425C23.6239 12.2983 23.0684 12.2598 22.5101 12.0487C21.6675 11.7306 20.8146 11.4416 19.9635 11.1451C19.6088 11.0212 19.2476 10.9236 18.8629 10.9433ZM7.21937 8.22037C7.04109 8.20536 6.93506 8.30857 6.85437 8.44744C6.68453 8.74113 6.51845 9.03764 6.35143 9.33227C4.78445 12.1022 3.21747 14.8721 1.65237 17.6429C1.34835 18.1815 1.36524 18.2218 1.91885 18.524C2.37017 18.7707 2.81775 19.026 3.27095 19.2699C3.69882 19.5017 3.78233 19.4792 4.01973 19.0597C5.08846 17.1775 6.15345 15.2934 7.21937 13.4092C7.88182 12.2382 8.54333 11.0663 9.20577 9.89525C9.3118 9.70759 9.45255 9.46738 9.24331 9.32382C8.62684 8.90064 7.95688 8.56379 7.28787 8.22788C7.26816 8.21755 7.24189 8.22131 7.21937 8.21943V8.22037ZM9.63834 24.7159C9.6374 25.1222 9.8016 25.3877 10.1178 25.5557C10.495 25.7555 10.8441 25.6767 11.1631 25.4224C12.3988 24.4381 13.6365 23.4557 14.8647 22.4621C15.287 22.1215 15.3527 21.5707 15.0496 21.1813C14.7306 20.7712 14.2023 20.6708 13.7735 21.0058C12.4917 22.0079 11.2288 23.0316 9.96205 24.0525C9.74249 24.2289 9.61488 24.4625 9.63834 24.7149V24.7159ZM16.1418 25.2451C16.1587 24.8754 15.9748 24.6174 15.6698 24.4447C15.3142 24.2439 14.9623 24.2974 14.6527 24.5414C13.78 25.2282 12.9074 25.9179 12.0517 26.6263C11.6201 26.9828 11.5769 27.5045 11.8987 27.9052C12.23 28.3181 12.7554 28.3828 13.2086 28.03C14.0756 27.3544 14.9304 26.6619 15.7871 25.9732C16.016 25.7884 16.1558 25.5529 16.1427 25.246L16.1418 25.2451ZM11.9982 20.0722C11.9963 19.7147 11.8471 19.4294 11.53 19.269C11.1678 19.086 10.8037 19.1198 10.4781 19.3788C9.63646 20.0478 8.79479 20.7168 7.95876 21.3924C7.49523 21.7677 7.41923 22.2979 7.75139 22.7192C8.08355 23.1405 8.61933 23.1968 9.08661 22.8318C9.9339 22.1702 10.7718 21.4956 11.6107 20.8238C11.849 20.6333 12.0048 20.394 11.9973 20.0722H11.9982ZM13.7847 29.9254C13.7754 30.3129 13.964 30.5691 14.2717 30.7352C14.6311 30.9284 14.9801 30.8581 15.2907 30.6207C15.7458 30.2716 16.1896 29.9085 16.6353 29.5482C17.0979 29.1738 17.2011 28.6286 16.8905 28.2224C16.5574 27.787 16.0085 27.7269 15.5244 28.0947C15.0496 28.456 14.587 28.8332 14.1235 29.2085C13.8926 29.3962 13.7707 29.6411 13.7857 29.9263L13.7847 29.9254Z" fill="black"/>
<path d="M13.315 7.17014C13.0166 7.18234 12.8008 7.04441 12.6459 6.79857C12.0482 5.85088 11.4468 4.90506 10.8575 3.95267C10.591 3.52293 10.6792 3.07254 11.0471 2.85203C11.4224 2.62684 11.8456 2.75445 12.1186 3.18513C12.7116 4.12157 13.3093 5.05613 13.8883 6.00195C14.227 6.55555 13.9174 7.1617 13.315 7.1692V7.17014Z" fill="black"/>
<path d="M22.6879 7.17026C22.0817 7.1787 21.7449 6.57537 22.0742 6.02646C22.5424 5.24578 23.0378 4.482 23.523 3.71164C23.6534 3.50427 23.7772 3.29222 23.9189 3.09236C24.1713 2.7358 24.5889 2.64478 24.9342 2.85684C25.2701 3.06327 25.3902 3.50052 25.165 3.86834C24.5495 4.87327 23.9161 5.86788 23.2827 6.86249C23.1495 7.07173 22.9412 7.17495 22.6879 7.1712V7.17026Z" fill="black"/>
<path d="M18.7131 3.17494C18.7131 3.74731 18.7178 4.32062 18.7113 4.89299C18.7066 5.39123 18.4223 5.69618 17.9803 5.69337C17.5393 5.69055 17.2625 5.3856 17.2606 4.88173C17.2569 3.74825 17.2569 2.61477 17.2606 1.48035C17.2625 0.972721 17.5337 0.669646 17.9737 0.664017C18.4307 0.658387 18.7075 0.965215 18.7113 1.49161C18.715 2.05272 18.7113 2.61383 18.7113 3.17494H18.7131Z" fill="black"/>
<path d="M33.0902 12.6537C33.0967 13.0421 32.7477 13.4052 32.3639 13.4071C31.9708 13.4099 31.6189 13.0703 31.6095 12.6799C31.6011 12.3027 31.9576 11.933 32.3386 11.9246C32.7242 11.9161 33.0836 12.2643 33.0902 12.6537Z" fill="black"/>
</svg>
