<svg width="75" height="65" viewBox="0 0 75 65" fill="none" xmlns="http://www.w3.org/2000/svg">
<path d="M37.42 1.93945V10.4795" stroke="black" strokeWidth="2" stroke-miterlimit="10" stroke-linecap="round"/>
<path d="M73.84 38.3594H65.3" stroke="black" strokeWidth="2" stroke-miterlimit="10" stroke-linecap="round"/>
<path d="M9.54 38.3594H1" stroke="black" strokeWidth="2" stroke-miterlimit="10" stroke-linecap="round"/>
<path d="M63.17 12.6094L57.14 18.6394" stroke="black" strokeWidth="2" stroke-miterlimit="10" stroke-linecap="round"/>
<path d="M17.71 18.6394L11.67 12.6094" stroke="black" strokeWidth="2" stroke-miterlimit="10" stroke-linecap="round"/>
<path d="M37.42 56.8699C46.8751 56.8699 54.54 49.205 54.54 39.7499C54.54 30.2948 46.8751 22.6299 37.42 22.6299C27.9649 22.6299 20.3 30.2948 20.3 39.7499C20.3 49.205 27.9649 56.8699 37.42 56.8699Z" stroke="black" strokeWidth="2" stroke-miterlimit="10" stroke-linecap="round"/>
<path d="M61.53 63.8594L49.52 51.8594" stroke="black" strokeWidth="2" stroke-miterlimit="10" stroke-linecap="round"/>
<path d="M43.98 42.8096V45.4496C43.98 45.7496 43.74 45.9996 43.43 45.9996H40.79C40.49 45.9996 40.24 45.7596 40.24 45.4496V42.8096H43.98Z" stroke="black" strokeWidth="2" stroke-miterlimit="10" stroke-linecap="round"/>
<path d="M34.59 42.8096V45.4496C34.59 45.7496 34.35 45.9996 34.04 45.9996H31.4C31.1 45.9996 30.85 45.7596 30.85 45.4496V42.8096H34.59Z" stroke="black" strokeWidth="2" stroke-miterlimit="10" stroke-linecap="round"/>
<path d="M29.76 38.4395H45.08" stroke="black" strokeWidth="2" stroke-miterlimit="10" stroke-linecap="round"/>
<path d="M43.98 38.4298L41.94 33.8298C41.85 33.6298 41.66 33.5098 41.44 33.5098H33.4C33.18 33.5098 32.99 33.6398 32.9 33.8298L30.86 38.4298V42.8098H43.99V38.4298H43.98Z" stroke="black" strokeWidth="2" stroke-miterlimit="10" stroke-linecap="round"/>
</svg>
