<svg width="18" height="19" viewBox="0 0 18 19" fill="none" xmlns="http://www.w3.org/2000/svg">
<path d="M15.5447 4.15207L9.63027 1.61734C9.22779 1.44484 8.77221 1.44484 8.36973 1.61734L2.45535 4.15207C1.79996 4.43295 1.40953 5.11362 1.49798 5.82116L2.11096 10.725C2.31853 12.3856 3.14916 13.9053 4.43478 14.9767L7.97571 17.9274C8.56906 18.4219 9.43094 18.4219 10.0243 17.9274L13.5652 14.9767C14.8508 13.9053 15.6815 12.3856 15.889 10.725L16.502 5.82116C16.5905 5.11362 16.2 4.43295 15.5447 4.15207Z" fill="#7E869E" fillOpacity="0.25" stroke="#222222" strokeWidth="1.2" stroke-linecap="round"/>
<path d="M6 10L8.56874 12.5687C8.79184 12.7918 9.16329 12.7551 9.33831 12.4925L13 7" stroke="#222222" strokeWidth="1.2" stroke-linecap="round"/>
</svg>
