<svg width="18" height="20" viewBox="0 0 18 20" fill="none" xmlns="http://www.w3.org/2000/svg">
<path d="M13 14H5.41548C4.23086 14 3.63856 14 3.11625 14.202C2.84326 14.3076 2.58719 14.4526 2.35619 14.6324C1.91422 14.9763 1.60948 15.4842 1 16.5V5C1 3.11438 1 2.17157 1.58579 1.58579C2.17157 1 3.11438 1 5 1H13C14.8856 1 15.8284 1 16.4142 1.58579C17 2.17157 17 3.11438 17 5V10C17 11.8856 17 12.8284 16.4142 13.4142C15.8284 14 14.8856 14 13 14Z" fill="#7E869E" fill-opacity="0.25"/>
<path d="M17 10V15C17 16.8856 17 17.8284 16.4142 18.4142C15.8284 19 14.8856 19 13 19H3.5C2.11929 19 1 17.8807 1 16.5V16.5C1 15.1193 2.11929 14 3.5 14H13C14.8856 14 15.8284 14 16.4142 13.4142C17 12.8284 17 11.8856 17 10V5C17 3.11438 17 2.17157 16.4142 1.58579C15.8284 1 14.8856 1 13 1H5C3.11438 1 2.17157 1 1.58579 1.58579C1 2.17157 1 3.11438 1 5V16.5" stroke="#222222" strokeWidth="1.2"/>
<path d="M6 8L7.29289 9.29289C7.68342 9.68342 8.31658 9.68342 8.70711 9.29289L12 6" stroke="#222222" strokeWidth="1.2" stroke-linecap="round"/>
</svg>
