<svg width="21" height="19" viewBox="0 0 21 19" fill="none" xmlns="http://www.w3.org/2000/svg">
<path d="M16.9379 8.31123C17.1892 8.74621 17.3149 8.96369 17.3149 9.5C17.3149 10.0363 17.1892 10.2538 16.9379 10.6888C16.0834 12.1675 14.1561 14.5 10.5 14.5C6.84394 14.5 4.91663 12.1675 4.06211 10.6888C3.81076 10.2538 3.68508 10.0363 3.68508 9.5C3.68508 8.96369 3.81076 8.74621 4.06211 8.31123C4.91663 6.83247 6.84394 4.5 10.5 4.5C14.1561 4.5 16.0834 6.83247 16.9379 8.31123Z" fill="#7E869E" fillOpacity="0.25" stroke="#222222"/>
<circle cx="10.5" cy="9.5" r="3" fill="#222222"/>
<path d="M16 1H16.2C17.9913 1 18.887 1 19.4435 1.5565C20 2.11299 20 3.00866 20 4.8V5M16 18H16.2C17.9913 18 18.887 18 19.4435 17.4435C20 16.887 20 15.9913 20 14.2V14M5 1H4.8C3.00866 1 2.11299 1 1.5565 1.5565C1 2.11299 1 3.00866 1 4.8V5M5 18H4.8C3.00866 18 2.11299 18 1.5565 17.4435C1 16.887 1 15.9913 1 14.2V14" stroke="#222222" stroke-linecap="round"/>
</svg>
